<?xml version="1.0" encoding="UTF-8"?>
<svg width="12px" height="9px" viewBox="0 0 12 9" version="1.1" xmlns="http://www.w3.org/2000/svg" xmlns:xlink="http://www.w3.org/1999/xlink">
    <title>Path Copy</title>
    <g id="Latest" stroke="none" stroke-width="1" fill="none" fill-rule="evenodd">
        <g id="BMO-Price-Increase" transform="translate(-735.000000, -137.000000)" fill="#4D5059" fill-rule="nonzero">
            <g id="Group-6" transform="translate(-4.000000, 57.000000)">
                <g id="Group-10" transform="translate(474.000000, 16.000000)">
                    <g id="Group-11" transform="translate(182.916667, 7.000000)">
                        <g id="Offer-Verbage" transform="translate(0.000000, 8.000000)">
                            <g id="FREE-Items" transform="translate(82.000000, 42.000000)">
                                <path d="M0.652164556,11.1087616 C0.995952671,10.6618375 1.63695158,10.5782293 2.08387568,10.9220174 C2.09643629,10.9316794 2.10877023,10.9416326 2.12086749,10.9518687 L4.47267126,12.9418655 C4.59674339,13.0468501 4.78185351,13.0339399 4.89015146,12.9127491 L9.4664523,7.79164056 C9.85222087,7.35994632 10.5149054,7.3227162 10.9465997,7.70848477 C10.9499081,7.71144129 10.9531978,7.71441878 10.9564685,7.71741707 C11.3888847,8.11382023 11.4186067,8.78552274 11.0228926,9.21856963 L5.4722577,15.2928672 C5.11098033,15.6882285 4.50235707,15.7287708 4.09183188,15.3848217 L0.819896731,12.6435063 C0.361655649,12.2595796 0.28766915,11.5826052 0.652164556,11.1087616 Z" id="Path-Copy"></path>
                            </g>
                        </g>
                    </g>
                </g>
            </g>
        </g>
    </g>
</svg>