<?xml version="1.0" encoding="UTF-8"?>
<svg width="123px" height="100px" viewBox="0 0 123 100" version="1.1" xmlns="http://www.w3.org/2000/svg" xmlns:xlink="http://www.w3.org/1999/xlink">
    <title>Puffy Logo no TM Copy</title>
    <defs>
        <polygon id="path-1" points="0 0 86.4583333 0 86.4583333 100 0 100"></polygon>
    </defs>
    <g id="Latest" stroke="none" stroke-width="1" fill="none" fill-rule="evenodd">
        <g id="BMO-Price-Increase" transform="translate(-470.000000, -73.000000)">
            <g id="Group-6" transform="translate(-4.000000, 57.000000)">
                <g id="Puffy-Logo-no-TM-Copy" transform="translate(474.000000, 16.000000)">
                    <path d="M3.06916131,42.4645933 L3.06916131,64.1370737 L9.44157569,64.1370737 C13.4800641,64.1370737 16.5491006,63.1545354 18.6485602,61.17987 C20.7480199,59.2044375 21.8027437,56.4108836 21.8027437,52.8099479 C21.8027437,45.9127465 17.9454111,42.4645933 10.2196342,42.4645933 L3.06916131,42.4645933 Z M3.06916131,67.0179501 L3.06916131,85.4166667 L0,85.4166667 L0,39.5833333 L10.795063,39.5833333 C15.3984928,39.5833333 18.9151127,40.6744175 21.3449226,42.8570972 C23.785095,45.0396491 25,48.2262182 25,52.4275443 C25,56.6835907 23.6360254,60.1759805 20.9186884,62.9146861 C18.2009768,65.6539031 14.3968298,67.0179501 9.50549835,67.0179501 L3.06916131,67.0179501 L3.06916131,67.0179501 Z" id="Fill-1" fill="#7F8280"></path>
                    <path d="M51.3661731,84.6354802 L51.3661731,78.7219815 L51.2417446,78.7219815 C49.0844155,83.1817997 45.7448935,85.4166667 41.222814,85.4166667 C33.8797054,85.4166667 30.2083333,80.5772516 30.2083333,70.8984216 L30.2083333,52.0833333 L33.0083408,52.0833333 L33.0083408,70.1604579 C33.0083408,74.5659934 33.7033911,77.7668874 35.0932485,79.7636482 C36.4832275,81.7493491 38.6609706,82.7474117 41.6376569,82.7474117 C44.5418004,82.7474117 46.8857723,81.6295969 48.6799012,79.4055356 C50.474273,77.1807115 51.3661731,74.2190678 51.3661731,70.519079 L51.3661731,52.0833333 L54.1666667,52.0833333 L54.1666667,84.6354802 L51.3661731,84.6354802" id="Fill-2" fill="#7F8280"></path>
                    <path d="M72.9166667,41.0336867 C72.118728,40.425017 70.8994892,40.126311 69.2814109,40.126311 C65.1929167,40.126311 63.1422429,42.7740118 63.1422429,48.0696635 L63.1422429,53.3867049 L71.9193083,53.3867049 L71.9193083,56.0132661 L63.1422429,56.0132661 L63.1422429,85.4166667 L60.1504275,85.4166667 L60.1504275,56.0132661 L54.1666667,56.0132661 L54.1666667,53.3867049 L60.1504275,53.3867049 L60.1504275,47.8243693 C60.1504275,44.4396603 61.0370404,41.8772684 62.7991008,40.126311 C64.5610313,38.3752285 66.7664631,37.5 69.4037113,37.5 C70.8112044,37.5 71.9855219,37.7027648 72.9166667,38.097412 L72.9166667,41.0336867" id="Fill-3" fill="#7F8280"></path>
                    <g id="Group-8" transform="translate(36.458333, 0.000000)">
                        <mask id="mask-2" fill="white">
                            <use xlink:href="#path-1"></use>
                        </mask>
                        <g id="Clip-5"></g>
                        <path d="M50.036412,41.3440824 L50.036412,38.4460398 C49.1532594,38.0565312 48.0395905,37.8564065 46.7045178,37.8564065 C44.2031959,37.8564065 42.1114342,38.720239 40.4401921,40.4485213 C38.7690732,42.1766801 37.9282803,44.7057081 37.9282803,48.046346 L37.9282803,53.5362564 L32.2528052,53.5362564 L32.2528052,56.1286181 L37.9282803,56.1286181 L37.9282803,85.1491676 L40.7658947,85.1491676 L40.7658947,56.1286181 L49.0904585,56.1286181 L49.0904585,53.5362564 L40.7658947,53.5362564 L40.7658947,48.2884462 C40.7658947,43.0617473 42.7108747,40.4485213 46.588644,40.4485213 C48.123325,40.4485213 49.2795999,40.7433379 50.036412,41.3440824" id="Fill-4" fill="#7F8280" mask="url(#mask-2)"></path>
                        <path d="M58.4902717,91.6088371 C57.3444636,94.4542868 56.0726843,96.5614603 54.6751802,97.9422095 C53.2770603,99.322218 51.4797239,100.007284 49.2830478,100.007284 C48.3585204,100.007284 47.5384149,99.8596288 46.8238395,99.575306 L46.8238395,96.7302267 C47.5595948,97.0145495 48.4211982,97.1622047 49.4093884,97.1622047 C51.9320133,97.1622047 53.928958,95.4130581 55.3791657,91.9142711 L58.3117202,84.9069439 L46.3613295,53.5362564 L49.5354827,53.5362564 L59.0474756,79.2797486 C59.247207,79.8381471 59.3941118,80.2596312 59.478462,80.5443243 C59.5625659,80.9443268 59.6571366,81.2922302 59.7515842,81.5979111 L59.8776785,81.5979111 L60.6131876,79.469256 L70.7773244,53.5362564 L73.8566606,53.5362564 L58.4902717,91.6088371" id="Fill-6" fill="#7F8280" mask="url(#mask-2)"></path>
                        <path d="M82.0615333,23.4744659 C79.5096013,20.8142026 76.1091186,19.1341922 72.464082,18.7294983 C71.1668129,15.8298508 69.1097765,13.3436626 66.5037864,11.5290835 C62.9366968,9.04462373 58.6328667,7.97153069 54.1826243,8.58931228 C53.8133305,8.64067062 53.4416971,8.70474509 53.0765901,8.77993074 C51.2778991,6.25065587 48.9034104,4.12323533 46.1970621,2.61717665 C43.1198193,0.904943858 39.6291989,0 36.1032376,0 C30.6342666,0 25.4668629,2.11112414 21.5533833,5.94398731 C18.09207,9.33326749 15.914111,13.8268755 15.397543,18.6303619 C11.3217663,18.7175229 7.502488,20.3506194 4.61143127,23.2497731 C1.6377483,26.2307792 0,30.194137 0,34.4099655 C0,38.625794 1.6377483,42.5890283 4.61143127,45.5701578 C7.58474483,48.5514108 11.5378752,50.1931493 15.7424553,50.1931493 C16.7045401,50.1931493 17.4874576,49.4083297 17.4874576,48.4436324 C17.4874576,47.4790585 16.7045401,46.6946092 15.7424553,46.6946092 C12.4696678,46.6946092 9.39291746,45.4168236 7.07864367,43.0965623 C4.76436987,40.7766715 3.48988154,37.6914672 3.48988154,34.4099655 C3.48988154,31.1283403 4.76436987,28.0432595 7.07864367,25.7233687 C9.39217863,23.4032309 12.4689289,22.1253218 15.7424553,22.1253218 C15.9841771,22.1253218 16.172826,22.1285317 16.3319215,22.1354453 C16.5245109,22.1448281 16.7020773,22.1575442 16.8647439,22.1719887 C17.8185783,22.2591497 18.6673752,21.5498861 18.7539419,20.5918555 C18.7576361,20.5509911 18.7597295,20.5103735 18.7608377,20.4706202 C18.8657521,15.9097278 20.7201019,11.6394546 23.9820532,8.44573115 C27.2403103,5.25534108 31.5447561,3.49866357 36.1032376,3.49866357 C39.0513077,3.49866357 41.9575105,4.24829783 44.5066103,5.66719548 C47.0787371,7.09880925 49.2642076,9.18104433 50.8254866,11.6885907 C51.2483458,12.369706 52.0773173,12.6730412 52.8219387,12.4340274 C53.4280287,12.2636559 54.0470483,12.1337786 54.6602804,12.0484694 C55.2829941,11.9627899 55.9323059,11.9193328 56.5903606,11.9193328 C59.4431211,11.9193328 62.1834557,12.7772394 64.5138607,14.4000889 C66.8695092,16.0403459 68.6393856,18.3212242 69.6322551,20.9969197 C69.8789025,21.6595164 70.494351,22.1050747 71.2000605,22.1314946 C74.3754451,22.2537176 77.3407546,23.5901456 79.5522074,25.8944808 C81.7549173,28.1911617 82.9684518,31.2155013 82.9684518,34.4099655 C82.9684518,37.2607238 81.9742278,40.0374076 80.1690105,42.2285323 C78.3479082,44.4373113 75.8126,45.9467034 73.0318758,46.4779412 C72.5751533,46.5637442 72.1791384,46.8226347 71.9157442,47.2078223 C71.6532119,47.5926395 71.555809,48.0569633 71.6416368,48.5148674 C71.7267258,48.9735122 71.9849483,49.3710455 72.3688956,49.6347508 C72.7527197,49.897345 73.2152297,49.9953703 73.6747843,49.9099377 C77.2614531,49.2242545 80.5219267,47.2869586 82.8551639,44.4560769 C85.1784269,41.6368002 86.4584565,38.0687535 86.4584565,34.4099655 C86.4584565,30.3138908 84.8970543,26.4301631 82.0615333,23.4744659" id="Fill-7" fill="#0078B2" mask="url(#mask-2)"></path>
                    </g>
                </g>
            </g>
        </g>
    </g>
</svg>